<svg width="101" height="100" viewBox="0 0 101 100" fill="none" xmlns="http://www.w3.org/2000/svg">
<path d="M77.9196 56.5344V26.4999L50.3334 5.17236L22.7472 26.4999V57.6206L77.9196 56.5344Z" fill="#F0C419"/>
<path d="M43.4368 48.069V36.2069C43.4368 35.7497 43.6185 35.3111 43.9418 34.9878C44.2652 34.6644 44.7037 34.4828 45.161 34.4828H55.5058C55.9631 34.4828 56.4016 34.6644 56.7249 34.9878C57.0483 35.3111 57.2299 35.7497 57.2299 36.2069V46.4138L43.4368 48.069Z" fill="#A56A43"/>
<path d="M50.3334 27.5862C53.19 27.5862 55.5058 25.2704 55.5058 22.4137C55.5058 19.5571 53.19 17.2413 50.3334 17.2413C47.4767 17.2413 45.1609 19.5571 45.1609 22.4137C45.1609 25.2704 47.4767 27.5862 50.3334 27.5862Z" fill="#2FA8CC"/>
<path d="M50.3334 0C49.638 9.23101e-05 48.9588 0.210445 48.3851 0.603448L15.6265 23.0172C14.8843 23.539 14.3776 24.3322 14.2163 25.225C14.055 26.1177 14.2519 27.0381 14.7646 27.7866C15.2772 28.5351 16.0641 29.0515 16.9549 29.2238C17.8456 29.396 18.7683 29.2103 19.523 28.7069L50.3334 7.62069L81.1437 28.7069C81.8985 29.2103 82.8212 29.396 83.7119 29.2238C84.6026 29.0515 85.3896 28.5351 85.9022 27.7866C86.4148 27.0381 86.6118 26.1177 86.4505 25.225C86.2891 24.3322 85.7825 23.539 85.0403 23.0172L52.2817 0.603448C51.7079 0.210445 51.0288 9.23101e-05 50.3334 0Z" fill="#F29C1F"/>
<path d="M24.092 47.3793L22.3679 50.6724L8.57477 78.2586L6.38512 82.6379C6.09424 83.1918 5.65817 83.6561 5.12363 83.981C4.58908 84.306 3.9762 84.4795 3.35064 84.4828H2.05753C1.60026 84.4828 1.16172 84.3011 0.838384 83.9778C0.515046 83.6544 0.333396 83.2159 0.333396 82.7586V36.2069C0.331971 35.9231 0.400647 35.6433 0.533327 35.3923C0.666007 35.1414 0.858587 34.9271 1.09397 34.7685C1.32936 34.6099 1.60026 34.5118 1.88265 34.483C2.16503 34.4542 2.45015 34.4956 2.71271 34.6035L22.3334 42.569C22.7812 42.7495 23.186 43.0221 23.5218 43.3691C23.8576 43.716 24.1167 44.1296 24.2825 44.583C24.4483 45.0365 24.517 45.5197 24.4842 46.0014C24.4514 46.4831 24.3178 46.9525 24.092 47.3793Z" fill="#955BA5"/>
<path d="M77.4023 81.2586C77.4043 82.1981 77.1349 83.1182 76.6267 83.9083C76.1184 84.6985 75.3928 85.3251 74.5371 85.7129C73.6814 86.1007 72.7319 86.2332 71.8027 86.0945C70.8735 85.9558 70.004 85.5518 69.2989 84.931L67.3678 83.2069C67.8073 83.6313 68.1562 84.1404 68.3932 84.7034C68.6303 85.2665 68.7507 85.8718 68.7472 86.4827C68.7342 87.7098 68.2459 88.8841 67.3851 89.7586C66.5156 90.6261 65.3375 91.1134 64.1092 91.1134C62.881 91.1134 61.7028 90.6261 60.8334 89.7586L60.6782 89.7414C61.3109 90.4138 61.6627 91.3017 61.6609 92.2241C61.6648 93.1254 61.3258 93.9945 60.7127 94.6552L60.6782 94.8276C60.3387 95.1675 59.9356 95.4371 59.4918 95.6211C59.048 95.8051 58.5724 95.8997 58.092 95.8997C57.6116 95.8997 57.1359 95.8051 56.6922 95.6211C56.2484 95.4371 55.8452 95.1675 55.5058 94.8276L54.2816 93.6207C54.849 94.3239 55.1593 95.1998 55.1609 96.1034C55.1618 96.6196 55.0602 97.1307 54.8619 97.6073C54.6636 98.0838 54.3726 98.5162 54.0058 98.8793C53.3322 99.5544 52.4361 99.9617 51.4845 100.025C50.5329 100.089 49.5906 99.8039 48.8334 99.2241L43.4368 94.8276L43.1782 94.7069L44.9023 91.0862C45.0854 90.6318 45.1734 90.1448 45.1609 89.6552C45.1744 88.8591 44.9119 88.0829 44.4181 87.4583C43.9243 86.8338 43.2296 86.3993 42.4519 86.2288C41.6742 86.0582 40.8614 86.162 40.1515 86.5226C39.4417 86.8831 38.8785 87.4782 38.5575 88.2069L38.9196 87.3965C39.1735 86.8568 39.3087 86.2688 39.3161 85.6724C39.3166 84.6931 38.9836 83.7429 38.3719 82.9782C37.7603 82.2134 36.9065 81.6797 35.9511 81.465C34.9957 81.2502 33.9956 81.3672 33.1156 81.7966C32.2355 82.226 31.5279 82.9423 31.1092 83.8276L31.8161 82.2931C32.07 81.7533 32.2052 81.1654 32.2127 80.5689C32.1945 79.5933 31.8458 78.6526 31.2236 77.9008C30.6014 77.1491 29.7426 76.6307 28.7875 76.4305C27.8324 76.2302 26.8376 76.36 25.9659 76.7986C25.0941 77.2372 24.397 77.9586 23.9885 78.8448L22.8334 81.362C23.2358 80.4498 23.2593 79.4151 22.8988 78.4855C22.5382 77.5559 21.8232 76.8075 20.9109 76.4051C19.9987 76.0028 18.964 75.9792 18.0344 76.3398C17.1048 76.7003 16.3564 77.4153 15.954 78.3276L14.5747 81.0345L8.59198 78.2414L22.3851 50.6552C25.2016 52.083 28.2382 53.0272 31.3678 53.4483C33.2816 53.4483 37.0058 52.1207 41.0058 51.9655C40.9996 52.0113 40.9996 52.0577 41.0058 52.1034L37.0058 60.9655C36.5315 62.0115 36.4802 63.2005 36.8626 64.2835C37.2451 65.3665 38.0315 66.2596 39.0575 66.7758C39.9344 67.2121 40.9312 67.3455 41.892 67.1552C42.8527 66.9649 43.7234 66.4617 44.3678 65.7241L52.2644 56.8965L75.7472 77.5862L76.0747 77.9138C76.9349 78.814 77.411 80.0135 77.4023 81.2586Z" fill="#FDD7AD"/>
<path d="M68.7644 86.5518C68.769 87.2719 68.5973 87.9822 68.2644 88.6207L57.2299 78.9656C57.0486 78.8196 56.8988 78.6384 56.7895 78.4329C56.6801 78.2275 56.6135 78.002 56.5936 77.7701C56.5737 77.5382 56.601 77.3047 56.6737 77.0836C56.7465 76.8626 56.8633 76.6585 57.0171 76.4838C57.1708 76.3091 57.3584 76.1673 57.5684 76.067C57.7784 75.9667 58.0066 75.91 58.2391 75.9002C58.4717 75.8904 58.7038 75.9279 58.9215 76.0102C59.1391 76.0926 59.3379 76.2181 59.5058 76.3794L67.3678 83.2759C67.8104 83.6988 68.1625 84.2073 68.4025 84.7704C68.6426 85.3336 68.7657 85.9396 68.7644 86.5518ZM61.7299 92.2242C61.7337 93.1255 61.3947 93.9946 60.7816 94.6552L52.0575 85.8794C51.7351 85.5547 51.5549 85.1153 51.5565 84.6577C51.5581 84.2002 51.7414 83.7621 52.0661 83.4397C52.3908 83.1173 52.8302 82.9371 53.2877 82.9387C53.7452 82.9404 54.1834 83.1237 54.5058 83.4483L60.6782 89.7414C61.3368 90.4018 61.7127 91.2932 61.7299 92.2242ZM55.1437 96.0863C55.1455 96.9689 54.8477 97.826 54.2989 98.5173L49.8678 94.069C49.5854 93.7392 49.4378 93.3149 49.4545 92.881C49.4713 92.4471 49.6512 92.0355 49.9582 91.7284C50.2653 91.4213 50.6769 91.2415 51.1108 91.2247C51.5448 91.2079 51.969 91.3555 52.2989 91.638L54.2644 93.6035C54.8318 94.3067 55.142 95.1827 55.1437 96.0863Z" fill="#F9C795"/>
<path d="M100.333 36.0862V79.431C100.303 79.867 100.108 80.2752 99.7876 80.5728C99.4676 80.8705 99.0464 81.0355 98.6093 81.0344H97.3162C96.7027 81.043 96.0981 80.8877 95.5647 80.5846C95.0313 80.2815 94.5884 79.8416 94.2817 79.3103L90.3506 72.0172L79.2472 51.4482L76.5748 46.5517C76.3598 46.1511 76.2339 45.7089 76.2057 45.2552C76.1775 44.8015 76.2476 44.347 76.4114 43.923C76.5751 43.4989 76.8285 43.1152 77.1543 42.7982C77.4801 42.4812 77.8705 42.2383 78.2989 42.0861L97.9196 34.6724C98.1694 34.5619 98.442 34.5123 98.7147 34.5278C98.9875 34.5433 99.2526 34.6234 99.4884 34.7614C99.7241 34.8995 99.9236 35.0916 100.071 35.3219C100.217 35.5523 100.308 35.8142 100.333 36.0862Z" fill="#955BA5"/>
<path d="M23.1265 79.6725C23.1225 80.1695 23.023 80.6612 22.8334 81.1207V81.2242L21.1093 84.8621C21.1021 84.9251 21.1021 84.9888 21.1093 85.0518L20.9541 85.3794C20.5207 86.2697 19.7562 86.9553 18.8241 87.2896C17.892 87.6239 16.8661 87.5804 15.9656 87.1684C15.0651 86.7565 14.3614 86.0087 14.0048 85.0848C13.6483 84.1609 13.6672 83.1343 14.0575 82.2242L14.5748 81.0345L15.9541 78.0345C16.3131 77.2551 16.9281 76.622 17.6968 76.2404C18.4655 75.8589 19.3416 75.7519 20.1795 75.9372C21.0174 76.1225 21.7667 76.589 22.3028 77.2591C22.8389 77.9292 23.1296 78.7626 23.1265 79.6207V79.6725Z" fill="#F9C795"/>
<path d="M32.2127 80.4138C32.2053 81.0102 32.0701 81.5982 31.8161 82.1379L31.1093 83.6724L28.9541 88.3793C28.4968 89.4287 27.6414 90.2535 26.576 90.6723C25.5106 91.091 24.3225 91.0693 23.273 90.6121C22.2236 90.1548 21.3988 89.2994 20.9801 88.234C20.5614 87.1686 20.583 85.9805 21.0403 84.931L22.7644 81.1034V81L23.9196 78.4827C24.3281 77.5965 25.0252 76.8751 25.8969 76.4365C26.7687 75.998 27.7635 75.8682 28.7185 76.0684C29.6736 76.2686 30.5325 76.787 31.1547 77.5388C31.7769 78.2906 32.1256 79.2312 32.1437 80.2069L32.2127 80.4138Z" fill="#F9C795"/>
<path d="M39.3161 85.5862C39.3087 86.1827 39.1735 86.7706 38.9196 87.3104L38.5575 88.1207L36.9368 91.6552L36.7644 92.0517C36.259 93.0497 35.3854 93.8121 34.3283 94.1778C33.2711 94.5436 32.1131 94.484 31.0991 94.0117C30.0851 93.5393 29.2944 92.6913 28.8941 91.6467C28.4938 90.6021 28.5153 89.4428 28.9541 88.4138L31.1092 83.7069C31.5279 82.8217 32.2355 82.1054 33.1156 81.6759C33.9957 81.2465 34.9957 81.1296 35.9511 81.3443C36.9065 81.5591 37.7603 82.0928 38.372 82.8575C38.9836 83.6223 39.3166 84.5725 39.3161 85.5517V85.5862Z" fill="#F9C795"/>
<path d="M45.161 89.6552C45.161 90.1552 45.0541 90.6483 44.8506 91.1035L43.1265 94.7242L42.6437 95.7759C42.2596 96.6104 41.5597 97.2582 40.698 97.5766C39.8363 97.8951 38.8834 97.8583 38.0489 97.4742C37.2144 97.09 36.5666 96.3902 36.2481 95.5285C35.9297 94.6668 35.9665 93.7138 36.3506 92.8793L36.6955 92.1379L36.8679 91.7414L38.4886 88.2069C38.7773 87.4283 39.3372 86.7801 40.0655 86.3812C40.7939 85.9824 41.6417 85.8598 42.4532 86.0359C43.2647 86.2121 43.9853 86.6751 44.4828 87.34C44.9802 88.0049 45.221 88.827 45.161 89.6552ZM90.3506 72.0173L76.0748 77.9311L75.7472 77.5862L52.2644 56.8966L44.3161 65.7414C43.6717 66.479 42.801 66.9822 41.8403 67.1725C40.8795 67.3628 39.8827 67.2294 39.0058 66.7931C37.9799 66.2768 37.1934 65.3837 36.8109 64.3007C36.4285 63.2178 36.4798 62.0288 36.9541 60.9828L40.9541 52.1207C40.9479 52.0749 40.9479 52.0286 40.9541 51.9828C41.9934 49.7264 43.4702 47.6988 45.2989 46.0173C46.7039 44.721 48.5151 43.9522 50.4236 43.8422C52.3321 43.7321 54.2197 44.2876 55.7644 45.4138L66.2644 53.069C67.1849 53.7264 68.2529 54.1473 69.3744 54.2946C70.4959 54.442 71.6364 54.3112 72.6955 53.9138L79.1955 51.4828L90.3506 72.0173Z" fill="#F9C795"/>
</svg>
