<svg width="292" height="212" viewBox="0 0 292 212" fill="none" xmlns="http://www.w3.org/2000/svg">
<path d="M329.679 204.96L321.659 200.105L336.224 176.045C338.914 171.602 337.487 165.85 333.06 163.17L140.582 46.6475C127.317 38.6171 109.988 42.8769 101.957 56.1418L14.5655 200.5C6.53519 213.765 10.795 231.094 24.0599 239.125L232.577 365.357C237.004 368.037 242.772 366.62 245.452 362.193L332.844 217.835C335.534 213.392 334.106 207.64 329.679 204.96Z" fill="#0C469D"/>
<path d="M130.872 62.6872L315.329 174.355L305.619 190.394L121.162 78.727C116.735 76.047 115.317 70.279 117.997 65.852C120.677 61.425 126.445 60.0072 130.872 62.6872Z" fill="#FAFAFA"/>
<path d="M302.556 188.54L308.85 110.727C309.26 105.561 305.409 101.06 300.263 100.619L135.309 87.2914L302.556 188.54Z" fill="#235FB7"/>
<g filter="url(#filter0_d_105_17)">
<path d="M113.142 73.8719L270.476 169.119L276.771 91.3068C277.18 86.1409 273.33 81.6399 268.174 81.2144L116.142 68.9156L113.142 73.8719Z" fill="#235FB7"/>
</g>
<defs>
<filter id="filter0_d_105_17" x="110.142" y="66.9156" width="171.659" height="108.204" filterUnits="userSpaceOnUse" color-interpolation-filters="sRGB">
<feFlood flood-opacity="0" result="BackgroundImageFix"/>
<feColorMatrix in="SourceAlpha" type="matrix" values="0 0 0 0 0 0 0 0 0 0 0 0 0 0 0 0 0 0 127 0" result="hardAlpha"/>
<feOffset dx="1" dy="2"/>
<feGaussianBlur stdDeviation="2"/>
<feComposite in2="hardAlpha" operator="out"/>
<feColorMatrix type="matrix" values="0 0 0 0 0 0 0 0 0 0 0 0 0 0 0 0 0 0 0.25 0"/>
<feBlend mode="normal" in2="BackgroundImageFix" result="effect1_dropShadow_105_17"/>
<feBlend mode="normal" in="SourceGraphic" in2="effect1_dropShadow_105_17" result="shape"/>
</filter>
</defs>
</svg>
