<svg width="98" height="84" viewBox="0 0 98 84" fill="none" xmlns="http://www.w3.org/2000/svg">
<path d="M95.7301 5.49877V15.0739H1.55286V5.49877C1.55286 3.40453 3.25286 1.70715 5.35032 1.70715H91.9326C94.0301 1.70715 95.7301 3.40453 95.7301 5.49877Z" fill="#FF725C"/>
<path d="M61.313 33.0645H85.5105V41.5937H61.313V33.0645Z" fill="#AECADB"/>
<path d="M47.0699 43.499V66.7883H36.5415V52.2361H26.5782V66.7883H16.0497V43.4983H16.0503L31.5598 30.5778L47.0693 43.4983H47.0699V43.499Z" fill="#69B6EB"/>
<path d="M47.0699 43.499V43.4983H47.0693L31.5598 30.5778L16.0503 43.4983H16.0497V66.7883H26.5782V52.2361H36.5415V66.7883H47.0699V43.499ZM95.7301 15.0739V78.5013C95.7301 80.5955 94.0301 82.2929 91.9326 82.2929H5.35032C3.25286 82.2929 1.55286 80.5955 1.55286 78.5013V15.0739H95.7301ZM85.5105 41.5937V33.0644H61.313V41.5937H85.5105Z" fill="#DEEAFF"/>
<path d="M95.73 16.5904H1.5528C0.714193 16.5904 0.0338135 15.9111 0.0338135 15.0738C0.0338135 14.2365 0.714193 13.5571 1.5528 13.5571H95.73C96.5686 13.5571 97.249 14.2365 97.249 15.0738C97.249 15.9111 96.5686 16.5904 95.73 16.5904ZM87.1781 9.90707H49.3933C48.5547 9.90707 47.8743 9.22774 47.8743 8.39043C47.8743 7.55311 48.5547 6.87378 49.3933 6.87378H87.1781C88.0167 6.87378 88.6971 7.55311 88.6971 8.39043C88.6971 9.22774 88.0174 9.90707 87.1781 9.90707Z" fill="#333333"/>
<path d="M11.3851 10.3887C12.4903 10.3887 13.3863 9.49408 13.3863 8.39052C13.3863 7.28695 12.4903 6.39233 11.3851 6.39233C10.2798 6.39233 9.38379 7.28695 9.38379 8.39052C9.38379 9.49408 10.2798 10.3887 11.3851 10.3887Z" fill="#333333"/>
<path d="M19.7604 10.3887C20.8657 10.3887 21.7617 9.49408 21.7617 8.39052C21.7617 7.28695 20.8657 6.39233 19.7604 6.39233C18.6552 6.39233 17.7592 7.28695 17.7592 8.39052C17.7592 9.49408 18.6552 10.3887 19.7604 10.3887Z" fill="#333333"/>
<path d="M28.1357 10.3887C29.2409 10.3887 30.1369 9.49408 30.1369 8.39052C30.1369 7.28695 29.2409 6.39233 28.1357 6.39233C27.0304 6.39233 26.1344 7.28695 26.1344 8.39052C26.1344 9.49408 27.0304 10.3887 28.1357 10.3887Z" fill="#333333"/>
<path d="M91.9325 83.8095H5.35027C2.41862 83.8095 0.0338135 81.4283 0.0338135 78.5012V5.49869C0.0338135 2.57156 2.41862 0.19043 5.35027 0.19043H91.9325C94.8642 0.19043 97.249 2.57156 97.249 5.49869V78.5012C97.249 81.4283 94.8642 83.8095 91.9325 83.8095ZM5.35027 3.22372C4.09394 3.22372 3.07179 4.2443 3.07179 5.49869V78.5012C3.07179 79.7556 4.09394 80.7762 5.35027 80.7762H91.9325C93.1889 80.7762 94.211 79.7556 94.211 78.5012V5.49869C94.211 4.2443 93.1889 3.22372 91.9325 3.22372H5.35027Z" fill="#333333"/>
<path d="M51.9793 49.1061C51.6363 49.1061 51.2907 48.9904 51.0072 48.7541L46.0964 44.6629L31.5597 32.5531L16.0331 45.487L12.1122 48.7534C11.4679 49.29 10.5103 49.204 9.973 48.5607C9.43566 47.9174 9.52174 46.9613 10.166 46.4248L15.0768 42.3336L30.5863 29.4137C31.1496 28.9441 31.9692 28.9441 32.5325 29.4137L49.0319 43.1583L52.9534 46.4254C53.5977 46.9619 53.6838 47.9187 53.1464 48.5613C53.0038 48.732 52.8253 48.8693 52.6236 48.9635C52.4219 49.0576 52.202 49.1063 51.9793 49.1061Z" fill="#333333"/>
<path d="M47.0699 68.3049H36.5414C35.7028 68.3049 35.0224 67.6256 35.0224 66.7883V53.7527H28.0971V66.7883C28.0971 67.6256 27.4167 68.3049 26.5781 68.3049H16.0496C15.211 68.3049 14.5306 67.6256 14.5306 66.7883V43.4976C14.5306 42.6603 15.211 41.981 16.0496 41.981C16.8882 41.981 17.5686 42.6603 17.5686 43.4976V65.2716H25.0591V52.236C25.0591 51.3987 25.7395 50.7194 26.5781 50.7194H36.542C37.3806 50.7194 38.061 51.3987 38.061 52.236V65.2716H45.5509V43.4976C45.5509 42.6603 46.2313 41.981 47.0699 41.981C47.9085 41.981 48.5889 42.6603 48.5889 43.4976V66.7883C48.5889 67.6262 47.9085 68.3049 47.0699 68.3049ZM85.5104 43.1103H61.3129C60.4743 43.1103 59.7939 42.4309 59.7939 41.5936V33.0644C59.7939 32.2271 60.4743 31.5477 61.3129 31.5477H85.5104C86.349 31.5477 87.0294 32.2271 87.0294 33.0644V41.5936C87.0294 42.4309 86.3496 43.1103 85.5104 43.1103ZM62.8319 40.077H83.9914V34.581H62.8319V40.077ZM85.5104 51.0031H61.3129C60.4743 51.0031 59.7939 50.3238 59.7939 49.4865C59.7939 48.6492 60.4743 47.9698 61.3129 47.9698H85.5104C86.349 47.9698 87.0294 48.6492 87.0294 49.4865C87.0294 50.3238 86.3496 51.0031 85.5104 51.0031ZM85.5104 58.4113H61.3129C60.4743 58.4113 59.7939 57.732 59.7939 56.8947C59.7939 56.0574 60.4743 55.378 61.3129 55.378H85.5104C86.349 55.378 87.0294 56.0574 87.0294 56.8947C87.0294 57.732 86.3496 58.4113 85.5104 58.4113ZM85.5104 65.8189H61.3129C60.4743 65.8189 59.7939 65.1396 59.7939 64.3022C59.7939 63.4649 60.4743 62.7856 61.3129 62.7856H85.5104C86.349 62.7856 87.0294 63.4649 87.0294 64.3022C87.0294 65.1396 86.3496 65.8189 85.5104 65.8189Z" fill="#333333"/>
</svg>
