<svg width="88" height="100" viewBox="0 0 88 100" fill="none" xmlns="http://www.w3.org/2000/svg">
<path fill-rule="evenodd" clip-rule="evenodd" d="M50.5215 8.51697L64.5933 17.7998L78.6654 27.0826V62.2711H22.3775V27.0826L36.4494 17.7998L50.5215 8.51697Z" fill="#CCE4FF"/>
<path fill-rule="evenodd" clip-rule="evenodd" d="M50.5215 8.51697L64.5933 17.7998L78.6654 27.0826V32.4228L50.5215 13.8515L22.3775 32.4228V27.0826L36.4494 17.7998L50.5215 8.51697Z" fill="#9DC6FB"/>
<path fill-rule="evenodd" clip-rule="evenodd" d="M41.4601 35.8826H59.5883V62.271H41.4601V35.8826Z" fill="#407093"/>
<path fill-rule="evenodd" clip-rule="evenodd" d="M50.5215 0.0976562L67.3601 11.2041L84.193 22.3105V30.7299L67.3601 19.6234L50.5215 8.51699L33.6885 19.6234L16.8498 30.7299V22.3105L33.6885 11.2041L50.5215 0.0976562Z" fill="#FD4755"/>
<path fill-rule="evenodd" clip-rule="evenodd" d="M84.7611 80.5867C84.7611 73.6445 79.1313 68.0146 72.1891 68.0146C66.8033 68.0146 62.2074 71.4063 60.418 76.167H40.2049L38.9324 78.377L37.6541 80.5869L38.9324 82.7969L40.2049 85.0068H44.8746L47.8516 81.5584L50.6807 84.842L53.5156 81.5584L56.4867 85.0068H60.418C62.2074 89.7676 66.8035 93.1592 72.1891 93.1592C79.1313 93.159 84.7611 87.5291 84.7611 80.5867Z" fill="#FFD54F"/>
<path fill-rule="evenodd" clip-rule="evenodd" d="M79.2336 80.5867C79.2336 78.0303 77.1656 75.9567 74.6092 75.9567C72.0527 75.9567 69.9791 78.0303 69.9791 80.5867C69.9791 83.1432 72.0527 85.2168 74.6092 85.2168C77.1656 85.2168 79.2336 83.1432 79.2336 80.5867Z" fill="#E8F0FE"/>
<path fill-rule="evenodd" clip-rule="evenodd" d="M24.5193 80.1322H9.78262C4.74355 80.1322 0.619141 84.2566 0.619141 89.2957V99.9023H33.6885V89.2959C33.6885 84.2566 29.5641 80.1322 24.5193 80.1322Z" fill="#64B9FC"/>
<path fill-rule="evenodd" clip-rule="evenodd" d="M15.2535 72.9117H19.0541L20.4176 87.6483L17.151 92.1819L13.8844 87.6483L15.2535 72.9117Z" fill="#FD4755"/>
<path fill-rule="evenodd" clip-rule="evenodd" d="M16.8385 53.2666C10.8791 53.2666 6.04453 59.2715 6.04453 66.6682C6.04453 74.0705 10.8791 80.0754 16.8385 80.0754C22.8035 80.0754 27.6381 74.0705 27.6381 66.6682C27.6381 59.2715 22.8035 53.2666 16.8385 53.2666Z" fill="#FBE1CA"/>
<path fill-rule="evenodd" clip-rule="evenodd" d="M27.5303 68.5828C36.8699 61.1406 29.4277 47.3242 16.35 47.9662C8.175 48.3695 1.2668 53.3064 2.81777 62.3279C3.59043 65.5775 4.73222 67.6226 6.16953 68.7191C6.10137 62.6404 7.52168 59.2431 9.22031 57.1752C16.2533 65.1969 28.9393 56.3002 27.5303 68.5828Z" fill="#407093"/>
<path d="M87.3809 67.3849C87.3809 74.4035 82.3885 80.49 75.5123 81.8549C75.4219 81.873 75.3299 81.8824 75.2377 81.883C74.5824 81.883 73.9951 81.4201 73.8629 80.7527C73.8269 80.5719 73.827 80.3857 73.863 80.2049C73.8991 80.0241 73.9705 79.8522 74.073 79.699C74.1756 79.5458 74.3074 79.4143 74.4608 79.3121C74.6142 79.2099 74.7863 79.1389 74.9672 79.1033C80.5326 77.997 84.5731 73.0687 84.5731 67.3851C84.5731 64.3588 83.4387 61.5109 81.4707 59.3465V55.5746C85.1623 58.3322 87.3809 62.6832 87.3809 67.3849Z" fill="#407093"/>
</svg>
